<svg xmlns="http://www.w3.org/2000/svg" width="1024" height="1024" viewBox="0 0 1024 1024"><defs><linearGradient id="bg" x1="0%" y1="0%" x2="0%" y2="100%"><stop offset="0%" stop-color="#E6CBA8" /><stop offset="100%" stop-color="#C9A27A" /></linearGradient></defs><rect width="1024" height="1024" rx="225.28" fill="url(#bg)" /><rect x="276.48" y="276.48" width="69.78370370370371" height="471.04" rx="7.850666666666667" fill="#3C2E20" /><rect x="363.70962962962966" y="276.48" width="34.891851851851854" height="471.04" rx="7.850666666666667" fill="#3C2E20" /><rect x="416.04740740740743" y="276.48" width="52.33777777777778" height="471.04" rx="7.850666666666667" fill="#3C2E20" /><rect x="485.8311111111111" y="276.48" width="34.891851851851854" height="471.04" rx="7.850666666666667" fill="#3C2E20" /><rect x="538.1688888888889" y="276.48" width="87.22962962962964" height="471.04" rx="7.850666666666667" fill="#3C2E20" /><rect x="642.8444444444444" y="276.48" width="34.891851851851854" height="471.04" rx="7.850666666666667" fill="#3C2E20" /><rect x="695.1822222222222" y="276.48" width="52.33777777777778" height="471.04" rx="7.850666666666667" fill="#3C2E20" /><g transform="rotate(-3 512 512)"><rect x="220.16000000000003" y="533.504" width="583.6800000000001" height="51.2" rx="25.6" fill="#DC6B4C" /></g><path transform="translate(788.48 215.04)" d="M 0 -66.56 Q 11.9808 -11.9808 66.56 0 Q 11.9808 11.9808 0 66.56 Q -11.9808 11.9808 -66.56 0 Q -11.9808 -11.9808 0 -66.56 Z" fill="#FAF5EE" /><path transform="translate(204.8 204.8)" d="M 0 -32.768 Q 5.8982399999999995 -5.8982399999999995 32.768 0 Q 5.8982399999999995 5.8982399999999995 0 32.768 Q -5.8982399999999995 5.8982399999999995 -32.768 0 Q -5.8982399999999995 -5.8982399999999995 0 -32.768 Z" fill="#FAF5EE" /><path transform="translate(839.68 798.72)" d="M 0 -38.912 Q 7.00416 -7.00416 38.912 0 Q 7.00416 7.00416 0 38.912 Q -7.00416 7.00416 -38.912 0 Q -7.00416 -7.00416 0 -38.912 Z" fill="#FAF5EE" /><circle cx="163.84" cy="798.72" r="22.528" fill="#F2C76C" /><circle cx="307.2" cy="860.16" r="14.336" fill="#FAF5EE" /><circle cx="716.8" cy="880.64" r="18.432" fill="#F2C76C" /></svg>